/* XPM */
static char *small_hufflepuff[] = {
/* columns rows colors chars-per-pixel */
"63 64 228 2 ",
"   c #070705",
".  c #060806",
"X  c #090906",
"o  c #07070A",
"O  c #08060A",
"+  c #0B0B0A",
"@  c #070808",
"#  c #0F100B",
"$  c #14140D",
"%  c #19180A",
"&  c #110F11",
"*  c #131313",
"=  c #1B1A13",
"-  c #1B1A1C",
";  c #161519",
":  c #100F0C",
">  c #211E16",
",  c #1F2013",
"<  c #232314",
"1  c #24231B",
"2  c #2B2B1C",
"3  c #292917",
"4  c #363719",
"5  c #2B280F",
"6  c #1E1D21",
"7  c #1B1720",
"8  c #201F25",
"9  c #232325",
"0  c #26252B",
"q  c #2B2A2C",
"w  c #2B2927",
"e  c #343423",
"r  c #3E3D24",
"t  c #37362C",
"y  c #2D2C32",
"u  c #292731",
"i  c #312E35",
"p  c #322E3C",
"a  c #333235",
"s  c #3D3B34",
"d  c #35333B",
"f  c #39363D",
"g  c #3C3A3D",
"h  c #383736",
"j  c #2F3034",
"k  c #413E39",
"l  c #3F4032",
"z  c #4B4B1C",
"x  c #585817",
"c  c #504F11",
"v  c #5F601B",
"b  c #7A7A04",
"n  c #676718",
"m  c #777817",
"M  c #6D6F11",
"N  c #434325",
"B  c #4C4C2B",
"V  c #45462A",
"C  c #4F512E",
"Z  c #56562A",
"A  c #444231",
"S  c #4B4B34",
"D  c #44433B",
"F  c #4A4839",
"G  c #4E5030",
"H  c #525333",
"J  c #5B5C34",
"K  c #57573C",
"L  c #625E3D",
"P  c #5E6232",
"I  c #63643B",
"U  c #6C6C3B",
"Y  c #676835",
"T  c #74753F",
"R  c #70702B",
"E  c #373540",
"W  c #393641",
"Q  c #3C3A44",
"!  c #3E3B4A",
"~  c #403E44",
"^  c #413E4B",
"/  c #434243",
"(  c #44424B",
")  c #49454E",
"_  c #4C4947",
"`  c #524F41",
"'  c #565543",
"]  c #464351",
"[  c #494653",
"{  c #4C4A55",
"}  c #4B465A",
"|  c #4D4A5A",
" . c #514E5D",
".. c #504D56",
"X. c #54515D",
"o. c #595857",
"O. c #615F46",
"+. c #686945",
"@. c #737442",
"#. c #7A7B44",
"$. c #777949",
"%. c #65635A",
"&. c #757555",
"*. c #544E64",
"=. c #554F69",
"-. c #545064",
";. c #545068",
":. c #5C5867",
">. c #757479",
",. c #6E6E6D",
"<. c #807E10",
"1. c #807F49",
"2. c #7F804B",
"3. c #8A8A03",
"4. c #888909",
"5. c #908F0A",
"6. c #949303",
"7. c #93940C",
"8. c #9A9A06",
"9. c #868716",
"0. c #9B9A15",
"q. c #8F9309",
"w. c #A09E00",
"e. c #9FA009",
"r. c #A6A601",
"t. c #ADAB00",
"y. c #A8A809",
"u. c #B1AE01",
"i. c #B5B300",
"p. c #B9B600",
"a. c #BCBB00",
"s. c #BCBD09",
"d. c #B5B50A",
"f. c #A4A515",
"g. c #B7B817",
"h. c #AEB00A",
"j. c #86873B",
"k. c #8A892B",
"l. c #C1BE00",
"z. c #C0BF0F",
"x. c #BEC002",
"c. c #BFC00A",
"v. c #C2C100",
"b. c #C5C200",
"n. c #C6C500",
"m. c #C4C300",
"M. c #C9C700",
"N. c #C9C600",
"B. c #C7C800",
"V. c #C9C900",
"C. c #CDCA00",
"Z. c #CCCB00",
"A. c #C4C30A",
"S. c #CACA0B",
"D. c #D1CE00",
"F. c #CFD000",
"G. c #D4D200",
"H. c #DAD600",
"J. c #DDDA00",
"K. c #D6D50A",
"L. c #CBCB12",
"P. c #E0DE00",
"I. c #82844C",
"U. c #8B8C4C",
"Y. c #868846",
"T. c #92944C",
"R. c #9A9C4D",
"E. c #95984D",
"W. c #8B8E53",
"Q. c #848553",
"!. c #8E9152",
"~. c #929452",
"^. c #959953",
"/. c #9B9D53",
"(. c #969959",
"). c #8F914C",
"_. c #9EA157",
"`. c #A2A54C",
"'. c #A2A453",
"]. c #A2A45B",
"[. c #ABAD5A",
"{. c #A7AA57",
"}. c #ADB05C",
"|. c #AEB254",
" X c #B2B55D",
".X c #BABD5D",
"XX c #B6B85A",
"oX c #9EA360",
"OX c #AAAD62",
"+X c #ADB165",
"@X c #BCBE64",
"#X c #B4B765",
"$X c #C2BF65",
"%X c #BEC163",
"&X c #BBC055",
"*X c #C3C55D",
"=X c #C5C95B",
"-X c #D5D65D",
";X c #CDD15E",
":X c #C2C565",
">X c #CACD64",
",X c #CACD6C",
"<X c #C3C769",
"1X c #CDD268",
"2X c #D3D564",
"3X c #D3D56C",
"4X c #DBDD6B",
"5X c #D7DA66",
"6X c #D9DA74",
"7X c #CACF71",
"8X c #DEE16B",
"9X c #DDE165",
"0X c #DEE472",
"qX c #E3E56C",
"wX c #E6EA6D",
"eX c #EAED6D",
"rX c #E7E866",
"tX c #EEF26B",
"yX c #F2F566",
"uX c #F2F46C",
"iX c #E2E573",
"pX c #E5EA73",
"aX c #ECEE74",
"sX c #E6EA7A",
"dX c #EEF174",
"fX c #ECF179",
"gX c #F2F371",
"hX c #F1EF71",
/* pixels */
"d.t.u.t.u.u.i.a.a.l.a.p.a.a.a.a.x.a.v.N.N.N.N.N.v.v.N.V.V.B.V.N.v.v.p.a.i.i.i.i.t.t.t.i.i.v.a.x.a.p.a.i.r.r.8.3.4.b 4.b 4.3.6.",
"p.v.l.t.t.i.p.l.a.p.a.a.a.a.a.a.v.v.V.N.N.N.N.v.N.V.V.V.V.v.N.V.v.v.a.i.a.a.i.t.t.r.t.t.u.a.a.a.x.i.p.a.p.a.t.8.4.b 4.b <.3.8.",
"N.D.N.t.t.i.a.a.p.a.a.a.l.l.a.v.v.B.V.N.N.N.N.N.v.N.V.v.v.v.N.v.v.v.N.v.x.i.t.t.t.t.t.t.i.u.p.a.a.p.i.i.i.a.i.i.t.8.6.3.6.6.8.",
"C.V.V.i.i.p.a.a.p.a.a.a.l.v.v.v.B.B.V.V.N.N.N.V.N.N.V.V.V.v.s.8.V.v.v.v.v.a.t.t.i.i.i.t.i.u.i.p.a.a.x.a.a.a.i.u.r.r.r.t.8.6.6.",
"V.D.D.l.i.l.p.p.i.p.a.a.v.v.v.v.v.v.B.N.N.N.V.D.V.V.V.V.V.a.z / 7.v.v.v.v.a.i.t.i.t.t.i.p.i.a.p.a.a.a.p.p.p.p.t.t.t.u.u.u.u.w.",
"D.D.D.G.D.l.a.l.a.a.l.v.v.v.v.N.N.v.v.v.v.l.v.N.N.y.4.4.M k ~ f ^ B M 3.7.s.i.r.r.t.u.i.a.a.a.a.i.a.a.p.a.p.p.i.i.t.i.i.i.i.p.",
"D.D.G.H.H.H.V.v.a.l.v.v.v.l.v.v.v.N.v.v.l.v.s.d.7.c W / [ y g 0 g g s a 1 0.y.t.t.t.i.u.i.a.v.a.a.p.a.l.p.l.p.i.i.i.i.p.p.p.a.",
"C.D.G.G.H.G.G.G.G.G.D.V.N.v.v.N.N.v.v.7.9.n A ^ ^ y 0 ) i a / ) / q Q Q 0 ! g C M 5.h.i.u.i.v.v.a.a.p.a.l.l.p.i.i.i.a.l.p.p.p.",
"D.D.D.D.H.H.D.H.G.H.H.G.G.G.G.S.y.n t ! ] _ W ! 0 ~ @ ) 0 W ..) q f q ) p q { X.! ^ s z 4.s.x.N.l.p.p.p.a.p.l.p.p.p.a.p.p.a.p.",
"D.D.G.H.D.G.H.H.H.H.H.H.H.G.l.N W  .E W ] ) i } *.i f q f { { q { ] ~ f i ) ] y 9 y *.{ ^ B 4.d.p.p.a.p.a.p.p.i.a.p.a.a.p.p.l.",
"G.D.G.G.G.G.D.H.H.H.H.H.H.H.K.N ^ g a f *.[ g X.{ k 6 w Q ) W Q ) ^ ) 7 ^ / :.*.f ! ^ 6 6 *.Q z a.p.a.p.p.p.u.i.a.a.l.l.p.p.p.",
"D.C.D.H.D.G.H.H.H.H.H.H.H.P.H.f._ ] Q ! Q D S ~.:XpX|.<X{.:XT.e .Xe * @ I.~.' y ^ { { E j E f 6.a.a.l.p.p.u.i.i.a.a.l.l.l.l.l.",
"D.C.D.D.G.G.H.H.J.J.H.G.H.H.G.h._ f ) O. XpX=XyXwXuXuXwX^.uXtX|.,X@ o J dX0X, . , W._ Q ] ! F s.a.i.a.i.p.i.i.i.l.l.l.l.l.l.l.",
"D.G.G.G.G.H.H.H.J.H.H.P.G.K.H.4.Q 9 ..OX3XgXuX2X3 $X-X X< {.dX[.2 o = 8XgX@.@ & .XtXZ f ! j / d.l.v.a.p.p.i.a.a.a.l.a.l.l.l.l.",
"D.D.H.H.G.H.H.H.H.H.H.H.P.P.z.k a q { '.< `.5X2XB 1XuXgXI.rXaX= @ o OX[.{.$ . U.uX[.. p ) 0 q 9.l.l.i.a.a.p.p.p.l.v.p.l.l.l.l.",
"H.G.H.G.H.H.H.H.H.H.H.H.f.Y ) ) 0 f D 3X@.wXyXuX`.yXgXyXwXgXeX@ @ Y W.q @ @ V aXiX2 o f f f E / m 0.i.a.a.a.i.a.a.l.p.p.p.l.l.",
"G.G.H.G.P.H.H.P.G.P.H.P.9.~ | 0 Q ] +.uX<XuXhXuXuXuX*XuXuXqX3X@ 2 0X~ 6 @ @ +XtXJ o o +.^ [ q ! f 4 p.l.a.a.p.a.l.x.a.a.a.l.l.",
"H.G.H.P.H.H.H.H.H.P.H.H.z.^ ^ ] ] / OXR.uXeXU |.eX9X2 '.2X'.+.$ :X+Xq * X o * w @ * f ]./ ^ ) }  .<.l.l.a.a.p.a.a.a.l.l.v.l.p.",
"G.G.G.l.l.H.H.G.H.H.P.P.P.S ^ E f  XT 3 >XqXP j.rXuXB iXuX$X[.I.#Xi & f - @ - q - {  .(.* , ^ ^ _ h.a.a.l.l.a.a.l.v.l.a.v.l.l.",
"H.G.C.l.l.C.G.H.P.H.H.K.P.v p 6 { '.2X^.uXyXXXrXyXuX*XgXuXgX5X{.V q W * 0 ] -.*.*.=.] 1 O ) Q f Z l.a.a.a.a.l.v.v.v.a.N.v.l.l.",
"H.G.l.l.l.l.D.G.G.H.H.G.P.<.[ y [ Q.uXhXuXhXyXyXqXhXuXtX5XeX^.1 $ ) * 6 0 ! -.O f =.f . & X.0 ] R a.v.l.l.l.v.v.v.v.v.v.V.v.v.",
"H.C.l.l.l.p.l.P.P.P.H.H.G.f.^ E  .%.hXhX'.j.hX9Xk R.9X^.k K f * y @ o 0 6 { ] @ O W &   ; -.Q -.9.V.v.l.N.l.l.v.v.v.v.v.v.v.v.",
"D.l.l.l.l.l.l.C.P.P.P.P.P.z.^ y ] ` 0XqX$.Y qXqXI  XeX~.g ^ f 0 @ @ @ ; *.;.Q @ @ f ; * f -.0  .0.H.G.G.G.v.N.v.l.a.l.v.v.l.N.",
"l.i.p.l.i.l.l.l.G.P.P.P.P.K.k f W ' tXuX5X-XyXuXrXfXU.~ {  .0 . . O X.-.=.;.{ @ ; Q @ ]./ ) a f g.H.H.H.H.G.V.i.a.v.v.v.l.v.v.",
"i.i.i.a.a.l.v.N.D.H.H.H.P.K._ a Q w W.`.8XdXU.T eXU.{ { { =.{ - @ - ] -.;.X.0 * { 6 U dXD ..y ( S.P.H.H.H.H.H.G.V.F.B.l.p.N.N.",
"u.i.a.a.l.l.l.N.N.D.V.H.c.Y.^.>XsXfXpX,X:X~.H +.^.9 0 { ;.=.=.-.{ y 6 f Q ; 6 { ] V wX.XQ X.) / G.P.H.P.H.H.H.H.H.H.H.H.C.l.l.",
"i.v.v.v.v.N.v.C.V.N.V.5.I.H T.@X2 Z 9XrX=X2.%XwX8XR.Y F E E ^ X.f E -.{ f - ^ -.^ ^.tXB f ) 9 D K.H.H.H.H.H.P.H.H.H.H.H.H.G.D.",
"v.v.V.v.N.l.N.C.C.V.m ,XW.W.@ :X@Xe R -XtX5X:X5X5XXXI.$.W.@.F * Q  . .! ] Q j ;. .F P   i 8 6 _ G.H.H.P.H.H.H.H.H.H.H.H.H.H.H.",
"N.V.V.N.N.N.N.V.N.3.#.wX].W.@ 1XT = S T.I *X:XpX3X,X+X`.T.^.>X1X!.' ) { ,.>.,.;.;.p @ @ O 9 f F K.H.H.H.H.H.H.H.H.J.J.H.P.H.H.",
"N.V.D.D.N.N.V.D.V.x j.,Xe {.@ j.fX2 4 _.= _.$ 1X, L T.dXqXrXdX'.%XT.#XY a j >.;.-.; j ! ) W W e A.H.H.H.H.H.H.H.H.J.G.P.H.H.H.",
"N.D.D.V.D.D.D.D.V.7.@.1XU 3X@ #XaX1 @.R.2 |.% W.4 {.$ aX{.8XfX2 W.C Z 3X@XT.F ^ 0 ) E [ :.>.>.:.J F.J.G.P.H.H.H.H.H.H.H.P.H.H.",
"D.V.V.D.V.V.D.D.D.V.Y 8XdX3X# >XaX$ U.(.- ^.< @.H _.4 W.l B pX2 !.|.@ ' ; }.aX[.J f $. X,.&...%.o.c c 9.H.H.H.H.H.H.H.H.H.H.P.",
"D.V.N.N.V.V.V.D.D.D.M *XtX3X# 1XwX* T.Y.N l 4 OX< Y C ^.!.B }.2  Xr X +XK H dX2X,X~.2.tX1XpX0X4X<XfX<XT.H.H.H.P.G.H.H.H.H.H.P.",
"N.V.V.V.G.G.V.D.D.D.<.(.:X8X$ :XaX= 2.tXtXdXwXtX-XT B fX|.& U.w |.|.  W.1 V pXuX-XW.@.#XJ @.4X@.(.:X,Xj.H.P.H.G.H.G.H.P.P.P.G.",
"D.N.N.V.G.V.D.D.D.D.9._.=XgXI.Y tXP < @XdX2XwXdXyX(.V U }.e W.< `.|.  *XI < I U.iX.XI._.J @ {.#.  2 @Xk.H.P.H.H.H.H.P.H.P.P.P.",
"D.C.N.V.G.D.D.C.D.D.m OX#XiX0X.X.X#X#XsX2X.X_..XdX@.V %XC < +X# '.[.X iX+.V @.Z J ~.(.'.l @ :X`.X , 7X<.K.H.H.H.H.H.H.P.P.P.P.",
"N.N.D.D.V.V.D.D.D.D.x ~.I.x 4 0 * 0 r $.2 F U _.sX'.4 dXpX0XwX(.E.*X# wXI S Y #.H +._.#XV = pX X@ V qXR H.H.H.H.G.P.H.P.P.P.P.",
"C.N.D.V.V.G.G.D.D.S.G @.U.0.m *.E { &.H @ - q q D S @.>X8X:X.X.X=X:X. 6XC K Z P S T R.3Xl $ +XK @ & J , y.P.P.H.H.P.P.H.P.P.P.",
"C.D.D.D.D.D.G.G.G.a.# @.K f.m ^ y X.1 @ @ 0 { -.-.Q -.o...$.].+X#X2X, (.I G I 1 : I.^.<X2 * I.I.@ 4 sXm 5 L.P.H.P.P.P.H.P.P.P.",
"D.N.V.D.D.D.D.G.G.f.n 0.z 0.M ; ; o.* @ g { ;.;.{ ! ;.;.-. .! l $.<X0X=X X< 4XpX{.OXW.:X1 4 dX`.@ C Y.m % h.H.P.H.P.P.P.P.P.H.",
"C.C.C.D.D.D.D.D.H.d.n f.4.0.Y Q !  .y 6 g { ;.=.)  .;.-.f Q { =.=.) B R.iX[.#XaX*X+XQ.#Xe N gX^.@ U.@X  4 L.H.H.H.H.P.H.P.P.P.",
"D.D.D.D.G.G.D.D.G.D.m 0.<.f.A W *.Q f ( w ^ ;.;.] -.;.[ ( ;.;.=.X.*.[ i B (.T.}.wX^.Y.1X$ , aX[.o @.3XM V.G.D.G.G.G.G.G.H.H.H.",
"C.D.D.D.D.G.D.D.D.H.D.d.l.S.k 6 { ! f { Q f -.;.-.;.;. .-.=.=. .E ) f _ }.hX3XY.T.Q.E.%X1 % pXU @ Y 1X7.V.V.v.v.B.V.V.D.V.G.H.",
"l.D.C.D.D.D.D.G.G.D.D.G.G.p.W a y Q ^ -.^ E -.;.-.} { -.;.X.X.;. .Q g ~.uXyXyXuX=X_.R.%X+X_.*X].W.H <Xq.V.N.l.v.B.V.V.V.V.F.F.",
"l.N.D.D.D.D.D.D.D.D.G.D.H.z.~ a  .Q ) { [ q ] X.Q j { -.] j ( { =.=.^ +.aXgXqXgXuXqXY &XpXuXuXdX@X,X>Xq.V.v.a.v.V.V.D.D.N.V.G.",
"l.l.C.D.G.D.D.D.H.D.D.G.D.p.~ ^ X.j 6 - ^ X.;.;.-.{ y 6 l (.Q g =.*.*.} K <XG '.eXJ E.^.= k Z J Y R v 7.V.v.l.N.V.D.V.V.N.V.V.",
"l.p.l.D.G.V.D.G.V.N.G.D.H.A.g ; ! l _.[.= p  .;.-.-.:._ +X;X* +.) =.=.-.:.%.H 4XuX!.>X'.i Q 0 a h.V.B.V.V.v.v.v.V.D.D.D.D.V.V.",
"p.l.l.D.D.N.N.N.v.v.D.G.D.V.V p 0 [ OXU.@ o J S %...>./ $.l @ 6XQ.k :.%.,.:.^.gXuX2XdX+. .8 6 s s.V.V.V.N.V.v.v.V.D.D.G.G.G.G.",
"l.a.v.N.V.v.v.l.v.N.D.N.N.N.M } f } / @ @ Y aX1X- $ B <XQ.@ . 4XgX4X$XR.I.|.uXyXuXuX[.)  .y ) x V.V.V.N.v.N.v.N.V.G.G.G.V.F.G.",
"l.a.l.v.l.N.N.N.N.l.v.N.N.v.y.) ! Q [ Q 6 ,XiXe @ 2 iX=X$ . ' 1X+.=XyX3X XgXuX5XE.$.) ] E { ^ 8.D.V.V.l.v.v.N.V.D.G.D.D.D.G.F.",
"a.a.a.v.v.v.N.v.N.N.N.V.V.N.v.n [ a i =._ s s 6 @ (.3X2 X Y #X].3 U 5Xj.K '.@.9 q f [ g y  .Z S.v.N.D.N.N.N.V.D.V.D.G.D.D.D.D.",
"l.i.a.l.N.N.v.N.V.V.N.V.D.N.N.a.c f ^ ! y Q  . .^ ) f @ 1 0X}.wX~.sX X$.k g ) ) Q f E ^ ) B v.V.V.V.V.N.N.V.V.D.V.D.V.V.G.V.D.",
"x.a.a.v.N.N.l.N.N.V.D.V.D.N.v.N.v.M f } E 9 W f f *.{ ^ s |.Z wX[.` {  .] 0 Q Q 0 Q -./ m A.V.D.V.V.D.V.V.V.D.D.D.V.V.V.G.D.G.",
"a.a.a.l.v.N.N.N.N.V.V.V.V.N.V.v.N.D.d.M N A ^ a 6 Q Q Q { Q - ' ) ) ^ [ k ; W -._ L 9.s.V.D.D.V.V.V.D.D.N.V.V.D.V.V.V.V.G.V.D.",
"l.v.l.v.v.v.N.N.N.V.V.N.N.N.v.v.N.V.V.V.N.s.6.x k } ~ a a  .) { =.q y {  .' R 7.a.V.V.D.V.D.V.N.N.V.D.D.V.V.D.D.D.N.D.V.V.F.D.",
"v.l.v.v.l.N.N.N.N.V.V.N.v.v.v.N.N.N.V.V.V.V.V.N.l.<.V f ! ! y ^ W q g H 7.V.V.V.V.v.v.V.G.V.v.v.v.l.v.V.N.V.V.D.V.N.N.V.D.V.D.",
"l.a.l.l.l.N.l.N.v.N.N.l.l.v.N.N.N.V.D.V.N.D.V.V.V.V.S.M Q ] y 8  .V 5.V.D.V.V.V.v.v.v.v.v.a.v.a.i.a.p.p.i.a.v.x.v.B.v.v.v.B.D.",
"l.l.l.l.l.N.N.N.N.v.N.N.N.N.l.v.N.N.V.V.V.V.D.D.V.V.V.G.7.Q f ) r p.V.V.G.V.V.N.N.v.v.v.v.p.i.i.i.p.t.u.i.p.p.p.p.p.x.a.a.i.V.",
"l.p.a.l.l.N.N.N.N.l.N.N.N.N.N.N.N.v.V.V.V.V.V.V.G.V.V.D.F.5.) k a.V.N.V.D.V.V.N.N.v.v.x.x.x.p.i.i.a.t.t.p.i.p.p.p.x.a.p.i.a.l.",
"l.l.p.N.l.l.N.N.v.N.N.N.N.N.l.l.N.N.N.V.V.V.D.G.F.F.V.V.G.F.x 6.N.v.N.V.G.G.G.V.V.v.v.x.x.a.a.p.a.i.i.u.u.t.a.x.p.i.a.a.i.p.u.",
"l.a.p.v.l.l.N.N.N.N.v.N.N.N.N.v.N.N.V.D.V.D.V.G.V.V.V.V.F.V.N.V.N.V.D.V.G.G.V.V.V.V.v.x.a.a.x.a.i.a.p.i.i.i.a.p.p.p.x.a.i.i.u.",
"l.l.l.v.v.N.l.N.v.l.N.V.N.V.N.N.N.N.V.D.V.V.D.V.V.G.V.G.V.G.V.V.v.V.V.V.G.G.V.V.V.V.v.p.p.a.p.i.i.i.i.p.i.i.p.p.p.p.p.i.i.i.u.",
"l.a.l.l.v.N.l.l.l.v.N.N.N.V.V.N.V.V.V.D.D.D.V.V.V.V.G.V.G.V.G.V.V.V.V.B.J.F.B.V.F.v.a.p.i.p.a.i.i.i.a.a.i.p.i.i.i.i.p.i.i.i.p.",
"a.a.a.l.v.l.p.l.l.l.N.N.v.V.V.V.D.D.V.V.V.V.D.V.G.V.G.V.V.G.G.V.V.G.F.V.F.G.V.F.V.v.a.a.a.a.a.i.a.a.i.p.i.i.u.i.p.p.i.p.t.t.h."
};
