/* XPM */
static char *small_griffyndor[] = {
/* columns rows colors chars-per-pixel */
"64 64 253 2 ",
"   c #191215",
".  c #1E0F0E",
"X  c #3E0106",
"o  c #3E0209",
"O  c #380507",
"+  c #29140E",
"@  c #33160E",
"#  c #271815",
"$  c #331C12",
"%  c #3A1713",
"&  c #3A2216",
"*  c #430007",
"=  c #490007",
"-  c #440209",
";  c #4A0109",
":  c #450C0C",
">  c #4B0B0D",
",  c #5C0106",
"<  c #55020C",
"1  c #5B000B",
"2  c #520B0D",
"3  c #560509",
"4  c #46150D",
"5  c #54130C",
"6  c #490A11",
"7  c #5B0211",
"8  c #5C0C13",
"9  c #540711",
"0  c #4B1713",
"q  c #571714",
"w  c #630007",
"e  c #61000A",
"r  c #6C000E",
"t  c #68080C",
"y  c #72010E",
"u  c #78090C",
"i  c #640212",
"p  c #6E0111",
"a  c #640B14",
"s  c #6B0A15",
"d  c #710111",
"f  c #750B14",
"g  c #790717",
"h  c #6B1314",
"j  c #671917",
"k  c #741314",
"l  c #781519",
"z  c #6C160D",
"x  c #472815",
"c  c #592814",
"v  c #593319",
"b  c #502C10",
"n  c #672619",
"m  c #77281A",
"M  c #623B1A",
"N  c #693819",
"B  c #713312",
"V  c #7B1A24",
"C  c #563622",
"Z  c #582920",
"A  c #693923",
"S  c #793A21",
"D  c #70312B",
"F  c #784218",
"G  c #6B4015",
"H  c #5F4022",
"J  c #6B4427",
"K  c #734423",
"L  c #7B4323",
"P  c #764A27",
"I  c #7A542A",
"U  c #775732",
"Y  c #734737",
"T  c #70544A",
"R  c #79645E",
"E  c #870A0D",
"W  c #840314",
"Q  c #880313",
"!  c #890B12",
"~  c #840319",
"^  c #850818",
"/  c #871616",
"(  c #911915",
")  c #8E190B",
"_  c #962515",
"`  c #9C3114",
"'  c #8E2B10",
"]  c #A63C0D",
"[  c #A63B17",
"{  c #821E24",
"}  c #892527",
"|  c #853824",
" . c #8B3937",
".. c #90382E",
"X. c #87470D",
"o. c #9D550D",
"O. c #874B15",
"+. c #954D17",
"@. c #9B5415",
"#. c #995617",
"$. c #89501B",
"%. c #A9490C",
"&. c #AC5B0C",
"*. c #A7570C",
"=. c #B75B0B",
"-. c #AD4814",
";. c #AB5D13",
":. c #A35B15",
">. c #B55913",
",. c #B14C11",
"<. c #BD6503",
"1. c #BC6905",
"2. c #B4620C",
"3. c #BC650B",
"4. c #B76507",
"5. c #AC6317",
"6. c #B46313",
"7. c #BA6312",
"8. c #B86718",
"9. c #B3680F",
"0. c #864A28",
"q. c #994628",
"w. c #83532A",
"e. c #875B2B",
"r. c #955929",
"t. c #875833",
"y. c #935A34",
"u. c #8A4439",
"i. c #8B632D",
"p. c #97692A",
"a. c #8A6536",
"s. c #936633",
"d. c #976A36",
"f. c #9B7439",
"g. c #A76B28",
"h. c #A36836",
"j. c #A27B3C",
"k. c #A77839",
"l. c #B47A39",
"z. c #B1732E",
"x. c #A35D35",
"c. c #C16504",
"v. c #C26808",
"b. c #C87815",
"n. c #C36E0F",
"m. c #C47E23",
"M. c #9C5E58",
"N. c #8E5249",
"B. c #A65D53",
"V. c #946744",
"C. c #987546",
"Z. c #946D55",
"A. c #A87A45",
"S. c #AC724F",
"D. c #9B7A66",
"F. c #AA6C61",
"G. c #AC7665",
"H. c #AD833C",
"J. c #A7863D",
"K. c #B3843C",
"L. c #B38A3C",
"P. c #BA8C3E",
"I. c #BF8128",
"U. c #CE831C",
"Y. c #CA8015",
"T. c #D1851C",
"R. c #D48B26",
"E. c #DA942A",
"W. c #DE9A2D",
"Q. c #D69326",
"!. c #C38836",
"~. c #C9963B",
"^. c #DD9B32",
"/. c #DA9835",
"(. c #D0872A",
"). c #E19C35",
"_. c #D8A13B",
"`. c #E3A334",
"'. c #EBAC3D",
"]. c #E6A83B",
"[. c #EAAF3A",
"{. c #FBC83F",
"}. c #AC8546",
"|. c #B38542",
" X c #BB8C44",
".X c #B58A47",
"XX c #BD9349",
"oX c #BD9654",
"OX c #AD8352",
"+X c #B48D6E",
"@X c #C49444",
"#X c #C89446",
"$X c #C3944A",
"%X c #CC9D4B",
"&X c #C89A48",
"*X c #D19D48",
"=X c #C99A52",
"-X c #C48B46",
";X c #CEA14B",
":X c #CEA144",
">X c #D4A34B",
",X c #DBAB4C",
"<X c #D8A647",
"1X c #DDB14D",
"2X c #DCB246",
"3X c #D6A856",
"4X c #D6AB55",
"5X c #E4AB47",
"6X c #EBB545",
"7X c #E4B34B",
"8X c #EBB54C",
"9X c #ECBB4C",
"0X c #E3B344",
"qX c #F3BD4C",
"wX c #F8BE4A",
"eX c #F2B746",
"rX c #E4B453",
"tX c #ECBA52",
"yX c #E5B559",
"uX c #F3BE54",
"iX c #F9BF51",
"pX c #E1AE50",
"aX c #C29966",
"sX c #C8927E",
"dX c #D5AD7B",
"fX c #CDA76E",
"gX c #EEC24D",
"hX c #FCC845",
"jX c #F5C34C",
"kX c #FBC64C",
"lX c #FBC84C",
"zX c #F8C647",
"xX c #F4C253",
"cX c #FAC552",
"vX c #F8C556",
"bX c #EEC255",
"nX c #B8A390",
"mX c #9E908A",
"MX c #CA9884",
"NX c #C5A389",
"BX c #DCB698",
"VX c #D6AB92",
"CX c #E1BC94",
"ZX c #E2BC8A",
"AX c #D3BCAD",
"SX c #EBC6A7",
"DX c #F7D4AE",
"FX c #F7D2B3",
"GX c #F9D4B3",
"HX c #F1CEAF",
"JX c #FCFAFA",
"KX c #EEEAE7",
"LX c #D7CEC7",
/* pixels */
"e w e i e 1 i 1 e e 1 i e e e i e e e e 1 1 e 1 e 1 1 7 7 7 7 1 1 1 7 1 1 1 , , , 1 1 , , 1 , 1 1 < 1 < < ; * * * X X X X X X X ",
"r r p e e 1 1 e e 1 1 e 1 e 1 1 e 1 1 1 e e 1 w 1 , e e 1 1 1 1 1 1 1 1 1 1 1 1 1 1 1 1 1 1 1 1 1 1 1 1 1 < 1 < ; * o o * - X o ",
"r y r e e e 1 1 e 1 e e e 1 e e 1 e 1 e e 1 1 i e 1 7 1 1 e e , , 1 1 , 1 1 1 < 1 1 , , 1 1 1 1 1 1 < 1 7 1 1 7 1 < < ; * * * X ",
"y y y r 1 e e e e e e e e e 7 1 e 1 e e 7 e 1 e 1 1 2 : > 5 n q : 2 2 , , < < , 1 1 7 < 1 1 1 1 1 1 1 , 1 < < < < 1 < 7 < - * X ",
"y y y r w w e 1 1 e e e e 1 1 e 1 e 1 1 < 2 q K t.f.L.>X3XyX8X=XoXyXyXpX;XH.f.h.0.j 2 6 1 1 1 1 1 1 1 1 < 1 < 1 1 1 < 1 7 < < * ",
"y y y r r w 1 e e e e e e e e e e e < P |.7XcXcXQ.>Xd.C 0 q A a.U A 0 c K d.H.7X).8X8X~.d.5 1 , , 1 , < 1 1 1 1 1 < 1 1 < 1 1 < ",
"y y y y y y r r e w 1 e e e 1 i e 7 2 |.'.b.^.`.Q.8XH.e.0.0.A.I f.y.D 0.A.j.%X].E.5XW.W.;X> 1 1 , < , < , < < 1 1 < 1 < 1 1 1 1 ",
"y y y y y y y y d r r r r i e e e e 7 s.cXT.[.cX].%X}.K.d.y.r.a.aXy.l.-X$X X*X^.eXwXY.^.l.< 1 1 1 1 1 1 , 1 1 1 1 1 1 1 7 < < 1 ",
"y y y y y y y y y y y y y y y y e 1 < p.`.Q.,Xm g g W ^ ^ ~ ~  .HXu.~ W u MXl ( q._.6XW.i.< 1 < < , 1 < 1 , , 1 , < 1 < < 1 7 1 ",
"y y y y y u y y y y y y y y y y y r 8 j.pXL.;X/ [ W ~ _ -.W f 0 D.V.l a N.HXN.~ ! *X_.~.k.< , 1 , 1 1 , < 1 < 1 1 1 , 1 1 1 < 1 ",
"y y y y y y y y y E y y y y y y y y 8 ,Xf.4 XX) [ ~ ~ _ ` s @.o.5.6.F B u.SXVX^ B.dXP.S &X6 1 , 1 1 1 < , < , , 1 , 1 < < 1 < 1 ",
"y y y y y y y y y y y y y y y y y r L 7XU H h.u ^ ~ ~ u r.l.g.:.5.2.<.<.*.A.HXV.SXdXA.5 yXc 1 1 1 1 1 1 1 1 1 1 1 < 1 1 < 1 7 1 ",
"y y y y E y y y y y y y y y r y p 5 =XU C..X| ~ g m r.XXJ.K uXkX8X5.7.2.&.*.p.R SXZX%XU t.|.2 < , < < 1 1 1 1 1 1 1 1 1 1 1 < 1 ",
"y y y E y y y y y y y y y r n $.P A.&Xa.J |.g Q a k.jXhXrX2XvX8X8X:.*.@.+.=.%.8 F.FXfXH U f.|.n 2 c < , 1 1 1 1 , 1 1 , 1 < 1 1 ",
"y y y y y y y y y y y y y 8 :XjX].@X& J 1X..^ Q f >XhXkXlXzX2X8X#.2.*.+.+.*.3.| l SXaX|.Y @ f.`.pXjXA < 1 1 1 , , 1 1 1 1 1 1 , ",
"y y y y y y y y y y y y z  X`.E./.~.a.|.K g Q ~ g r.rX7X&X|.6XcXqX8.<.2.&.;.c.2.k B.} | >X XL.E.`.).1Xj 1 1 1 1 1 1 1 1 1 , < , ",
"y u y y y y y y y y y y S uX].U.6X~.jXlXpXs ~ _ _ 7 q a j ~.lXuXlX!.<.<.<.&.*.*.n  .{ ~ | 8X'.eXb.].lXS < 1 , 1 1 1 1 , 1 1 1 1 ",
"y y y y y y u y y y y y s 8XE././.S pXkX7X| W ` [ s v j j tXlXg.!.8.<.<.<.c.2.+.B NXF.W g D.=X=X5XE.0Xn 1 1 < , 1 e 1 1 1 1 1 , ",
"y y y r r y y y y y y y e ~..X Xl.g k.{.%Xr.E ! ( k pXpXuXhXqX8.<.3.<.2.&.<.3.@.Z.BXSX} N.FXGXfX/.8X0Xn 1 1 1 1 1 1 1 , 1 1 1 1 ",
"y u y w w r y y y y y y s ,Xw.t.l.E n cX,Xp.~ Q W ~ 0.$XvXqXm.7.c.2.&.3.*.<.*.2.N.HXDX+XCXGXFXfXf..X&Xc 1 1 1 , 1 1 1 1 1 1 1 1 ",
"y y r w e w r y y y y y a 8XL K $XW h 1XcX,Xl W W W s B #.1.c.v.4.+.@.c.4.=.@.*.S Z.HXG.VXGXFXOXi.i.bXc 1 , 1 1 , 1 e 1 1 1 1 1 ",
"d p 1 w e w e y y y y y t 0Xs.d. XW ~ l ,XlXr.W ~ 8 O.<.<.c.3.;.F e.G 3.=.<.%.N D.FXSX/  .GXSXf.f.C.tXj , 1 1 1 1 1 1 1 1 1 1 w ",
"d e , e w , 1 r y y y y s 8XP.$Xk.~ Q ~ 0.lX8Xl ~ B 2.4.<.6.F d.qXcXK.&.<.4.#.l ..HXB.~ s R nXmX}.U ;Xt e 1 1 1 1 e w 1 , 1 1 1 ",
"r w e w w 1 w , r y y y t 8Xd.S =Xg ! ~ 0.cXkXk.h ;.;.8.z.qXjXkXlXkX8Xe.&.;.5 g g B.^ ~ M.JXJXJXLXf.$Xp p d r 1 1 1 1 1 , 1 1 , ",
"w w e 1 w w w w r r y y r >Xy.q =Xu >.Q D cXhXrXN p.pX6XlXjXkXlXlXlXcXtX$.O.8 Q ~ M.g z.+XKXJXJXJXfX&Xr y p y p r e 1 1 , 1 1 1 ",
"1 w w w w e w e e w e r r  Xs.M .XW -.Q h 8XhX~.G kXkXvX*X0XhXkXlXjXjX:Xr.Z.F.~  .HX$XS.q +XnXJXKX+Xk.r p d d y d r r p e e w , ",
"1 w w e e w w w w e w e r k.:XA.@Xg ! ~ u A.zX,Xf.7X_.2XqXkXhXhXcX:XlXrXJ HXHXV VXdX3XZ M.HXnXmXAXfXI r y p r p p y y d d d p e ",
"w w w w w w w w w w e 7 6 d.XX2X,Xk W W g A L.|.H.5XlXzXhXcXlXkX5XpXlX XVXFXFXZ.GXoX.X+XSXFXnXT C.gXJ > 8 p p d y d y p y d y d ",
"w 1 w w e w e w w 1 m XX,X XqX7X;X@X~.K.K.:X8XcXlXkXkXjXcXlXlXcXkXcXlXd.NXDXsXs MX%XZ.u.MXHXD.XX(.E.@X,X|.8 y p p y y d d r d y ",
"w e w w e w w 1 , 1 @X1XtXkX@XM 7XhXcXhXlXlXcXkXqX6XzX,X:XlXhXkXkXkXkXy. .HX} ~ {  XK u N.SXt.W.v.[.>X:XrXl.7 y y p d r y d d y ",
", w e e e e e e e < yXi.rX,XcX|.1XjXjXcX,X%X>X=XH.f.f.L.1X|.tXK.7XkXkXa.f D W d g k.0.f a D r.zXE.cXpX1X X;Xw d d d r d p d p y ",
"e w e e e 1 e e e , K.1X_.2XjXj.d.L.C.OXn HXGXVX4 }.zXrX@Xa.|.A.~.hXkXk.g l g d u p.d.f d f y.Q.Q.qX>Xf.,Xd.s p d y d y y d p d ",
"e e e e e e e e e 7 q K.>Xd.<X3X1X}.NXB.~ G.FX .f w.gXlXlXgX;X}.qXkXlX&Xf ,.W ( [ u.}.d [ ! z.3X_.R.K.p.y.8 r y y d d r y p d y ",
"e e 1 i e e e e e e 1 7 ; |.kXK.>X>XNXl Q ^ +X~ W a i.lXlXhXvX1XhXcXkX[.m ,.W ) [ q.#Xf >.E $XI f.vXa.< p r d y p p y d d y p p ",
"e e e 1 e e e e e 1 e e 1 5 j.d.c yXN.~ Q W M.~ ! V +XXXcXkXlXzXkXcXlXtXXXk W W ! 0.:Xs ! f 3X% J t.2 p p d r y y p d y y d p y ",
"e e e e e e e 1 e e e 1 e 1 A.h.0 1XCX .~  .HXY f N.dXC.;X=X:X:X%X*X%XK.}.L } / u u.XX4 0 a A.4 a.oX1 a p y y d d y y p d r r y ",
"e e e e e i e e e 1 e e 1 1 I j.v a.A.A.l. X>X7X:XvXvXcXcXkXkXkXkXkXeX6XqXqX6XgX<X-X!.+./ W ~ g h z a > i d d y d y p y y d r r ",
"e e e e e 1 1 e < 5 S S p.$X0XqXjXvXvX6X'.].W.E.E.Q.E.W.E.Q.R.T.T.m.Y.R.T.T.U.U.).E.W.7._ ^ ] ,.-.[ ! | K.r.S e r p y p p r p r ",
"e e e e e e e 7 q S.pXrX,XeXqX].E.b.v.5.1.<.3.c.c.c.c.<.<.$.b #.$.$.3.c.c.<.c.c.<.<.c.>._ ,.;.-.[ ,.! r.qXvX|.2 p d d p p p p r ",
"i 1 e e e e 1 e 7 5 f.qXn.3.n.<.v.<.2.& N <.3.<.<.<.<.9.F 4.$.$ #.N N <.3.c.c.<.c.<.v.&._ -.[ E ( ,.) q.cX0.e d p r r y r r p r ",
"e e e e e e i e e 7 0.8Xn.<.<.<.<.<.c.v v #.<.4.9.*.v.o.v 6.b + #.b $ @.$.&.F 5.X.X.5.c.! [ [ Q Q =.[ q.iXn r r r y r r p r p y ",
"e e 1 i e 1 1 e e 1 A vXn.#.O.5.o.v $.v # # F G $ + v #.& ;.:.  N $.  G & G   v @ # c 3.! Q Q ~ W ,.,...cXn r p p i i i i p r r ",
"e 1 e 7 e e 1 e 1 1 N qX:.# # x x J + C & J @ C v v G X.  5.6.  ;.#.. 8.O.# # 6.6.x v 7.! E E ~ ~ %.3.O.vXn < < < < , < < e e p ",
"1 1 1 1 1 1 e 1 e 1 c eX8.:.G v $ r.# v & Y # C c G G o.@ <.:.# &.#.# 8.7.x v 3.1.& N <.( v.=.-.W %.3.m vX0.< < < < < < < < < 1 ",
"; 1 1 1 1 e e e 1 7 B 6X<.<.G v x t.# H   v x v & N v O.# 3.;.  :.:.. 5.<.*.v 3.7.& M 3.` >.c.` Q ,.=.m jXS < < < < < < 6 < < < ",
"; , 1 e 1 e 1 1 e 7 S 8X1.3.b & #.& c $.X.*.5.2.:.7.2.o.$.&.<.N c 2.x x 2.3.@.x N ;.2.<._ >.=.E ( c.,.h tXL < < < < 1 < < < < < ",
"; ; , w e , 1 1 1 , 0.wXn.9.#.7.3.7.1.<.v.v.<.<.c.c.3.c.c.v.c.7.7.<.3.8.1.1.c.;.#.<.c.3._ =.>.E ] c.] l uXL < < < < < < < < < < ",
"* ; ; , 1 ; < 1 ; * N kXn.v.v.1.3.c.1.<.b.T.^.^.`.6X[.qXqXkXcX'.].].5X'.^._.).Q.T.(.b.n.( c.=.) 7.=.` m uXS 1 < < < 1 < < < < 7 ",
"; ; ; ; , ; ; ; ; * n 8Xv.<.n.b.).`.[.kXcXvX8X1X4X;X@XL.L.j.j.k.k.l.&X*X$X$X~.!.~._.^.b.^ ! ) ] =.-._ / 8Xw.7 < < < < < < < < < ",
"; * * ; ; * ; ; ; - K jX^.<XtXcXcX8XH.i.U t.J.+XBXnXa.@X8XgXf.H f W W 8 U 2X7XU e.f.K d.u _ g ( [ ! W k eXr.7 < 1 1 1 < < < 7 7 ",
"; ; ; * ; ; ; * ; * 4 ~.,XP.d.e.G : - % %XL.k.>Xt.rX7XkXcXs.7 MXg f j P 2XhXkXa.yXd.P.>X% ; 6 4 2 7 f f  XC.1 7 7 < < < < 1 1 1 ",
"; * ; ; ; * * * * * 0 K 5 o o X * * * - c 1XgXp.>X2XjXlXjXA g V s y.vXtXuXhXkXe.%XgXlXL < 1 1 < < ; 6 6 > > ; 1 < 1 < < 1 < 7 1 ",
"; ; * ; ; * * * ; * * * ; * * X * ; * * - c 8XU e.i.a.f.V.4 W M.j .X1X:XlX8X|.@X:XgXt.< 1 < 1 < < 7 1 7 1 7 1 1 1 1 < 1 < 1 7 < ",
"* * ; * ; ; * ; * ; * * * * * X * * * * - - v 1X2XrXU + f. XA SXV 0 a.v x K tXlX6Xk.; 7 7 7 1 1 1 1 < 1 7 1 < < < 7 7 1 < 7 1 1 ",
"* * ; ; * ; ; ; ; * ; * * * * * * * * * - - o N yXH 1Xk.c }.>XZXn  X,X& K ,XI gXL.4 1 1 1 < < 1 7 < 1 1 1 1 7 < 1 7 7 < 1 < 7 < ",
"; * * ; * ; ; * ; ; * * * * * * * X * X o o * X Z O b &XtX0X`.7X%XW.@XL.vXK o I : X - < 1 7 < ; - ; < < < 7 1 1 < 1 < 1 < 1 < 1 ",
"* ; ; * ; ; * ; * * * * * * * * * * * * * * * * - - * : d.W._.`.E.W.W.kXw.* o - - X X * ; , ; X * * * * * ; < < 1 1 1 < 1 < 7 1 ",
"* * * ; ; ; ; * * * ; * * ; * * ; * * * * * * * * - * * : e.jXW.b.kX6Xw.o * o X * X X * X X X X X X X X X * - ; - - ; - * - - < ",
"* * ; * * ; * * ; * ; * * * * ; * * ; * * * ; * * - o - ; : I qX'.tXS * * - o - * * X X X X X X o X X X * * X - o X o - X X * ; ",
"* * * * * * * ; ; * * * * ; * * * * * * ; * * * * * * * * * X s.tXN o * * * X * X X * X * X X X X X o - X X X o X X o * X X - - ",
"* ; * * * * * * ; ; * * ; * * * * * * * * * * * * * X X o * * 4 M o * * * * X X X * * X X X X X X X o X X - X X X X X X * X - X ",
"* ; * * * * X * * * * * * * * ; * * * * * * * * * * * * * - * - - * - * * * X X X X X X X X X X X X X X X X * X X o X X X X X X ",
"* * * * * * * * * * ; * * * * ; * * * X * * * * X * * * * * * * * X * * * * * X X X X X X X X X X X X X X X * X X X O X X X O O ",
"* * * * * * * * * * * * * * * * * * * * * * X * * * * - * * * * * X * * * * * * X X * X X * X X X o X o X X X X X O O X O O O O "
};
