/* XPM */
static char *small_ravenclaw[] = {
/* columns rows colors chars-per-pixel */
"63 64 243 2 ",
"   c #030204",
".  c #040509",
"X  c #05080D",
"o  c #0A0A0B",
"O  c #050B13",
"+  c #0A0F15",
"@  c #0B131B",
"#  c #091219",
"$  c #1B1C1D",
"%  c #151516",
"&  c #0B1925",
"*  c #0B1C2C",
"=  c #071626",
"-  c #131C26",
";  c #0B1E32",
":  c #101F32",
">  c #0D253A",
",  c #122435",
"<  c #14293B",
"1  c #14202C",
"2  c #222323",
"3  c #2A2A2B",
"4  c #25272B",
"5  c #29323C",
"6  c #343335",
"7  c #37383B",
"8  c #302D2E",
"9  c #4B3C35",
"0  c #5C493D",
"q  c #674C3A",
"w  c #765138",
"e  c #0D2B44",
"r  c #0D2B48",
"t  c #132C43",
"y  c #142E4A",
"u  c #0A304B",
"i  c #13334C",
"p  c #1B354B",
"a  c #193346",
"s  c #082E57",
"d  c #05315D",
"f  c #0B345C",
"g  c #0D375A",
"h  c #143B55",
"j  c #1B3A54",
"k  c #143C5C",
"l  c #173855",
"z  c #122F52",
"x  c #253749",
"c  c #363B43",
"v  c #263D53",
"b  c #053465",
"n  c #0D3B63",
"m  c #05366B",
"M  c #08356B",
"N  c #04386E",
"B  c #0B3D6C",
"V  c #0A3464",
"C  c #143D66",
"Z  c #053771",
"A  c #043973",
"S  c #093A71",
"D  c #053B79",
"F  c #0A3874",
"G  c #1A435D",
"H  c #3D4247",
"J  c #27445B",
"K  c #374755",
"L  c #37505E",
"P  c #0D436D",
"I  c #0B466B",
"U  c #154364",
"Y  c #1A4564",
"T  c #14446B",
"R  c #1A4A6B",
"E  c #064174",
"W  c #0C4374",
"Q  c #0A467B",
"!  c #06497E",
"~  c #0A4A7D",
"^  c #07457A",
"/  c #1B4D72",
"(  c #134D7A",
")  c #144A73",
"_  c #1C5176",
"`  c #14537C",
"'  c #1A537B",
"]  c #19577B",
"[  c #0E5175",
"{  c #254A65",
"}  c #344D64",
"|  c #385368",
" . c #255777",
".. c #385B75",
"X. c #285172",
"o. c #3C617B",
"O. c #444445",
"+. c #434549",
"@. c #4B4C4C",
"#. c #454849",
"$. c #554C46",
"%. c #484E54",
"&. c #46535A",
"*. c #5D5D5E",
"=. c #555555",
"-. c #56504C",
";. c #68594F",
":. c #775B4A",
">. c #695D54",
",. c #685347",
"<. c #5F605F",
"1. c #796457",
"2. c #706258",
"3. c #465866",
"4. c #565D63",
"5. c #455E74",
"6. c #596268",
"7. c #526675",
"8. c #676768",
"9. c #686D73",
"0. c #6D747B",
"q. c #7C7C7D",
"w. c #737475",
"e. c #766B66",
"r. c #825D44",
"t. c #89644B",
"y. c #976B4B",
"u. c #856854",
"i. c #956E52",
"p. c #997254",
"a. c #9F724E",
"s. c #A57554",
"d. c #A7714A",
"f. c #897C74",
"g. c #8B7263",
"h. c #A38A76",
"j. c #053E81",
"k. c #054C84",
"l. c #0A4C84",
"z. c #054E8B",
"x. c #094D8B",
"c. c #064384",
"v. c #05508F",
"b. c #05508E",
"n. c #09518C",
"m. c #0B598A",
"M. c #135584",
"N. c #135985",
"B. c #1A5A84",
"V. c #145C8B",
"C. c #1B5986",
"Z. c #054F91",
"A. c #084F90",
"S. c #035092",
"D. c #045091",
"F. c #055092",
"G. c #035194",
"H. c #045194",
"J. c #045194",
"K. c #095192",
"L. c #0C5A93",
"P. c #045398",
"I. c #055D9D",
"U. c #0B5D9D",
"Y. c #065A94",
"T. c #145D91",
"R. c #124D85",
"E. c #255B84",
"W. c #14608E",
"Q. c #04609F",
"!. c #0B639E",
"~. c #0C679B",
"^. c #146394",
"/. c #1B6493",
"(. c #13669B",
"). c #12689D",
"_. c #1A679A",
"`. c #24618A",
"'. c #216897",
"]. c #37698D",
"[. c #055FA1",
"{. c #0A5EA2",
"}. c #0562A6",
"|. c #0461A4",
" X c #0961A5",
".X c #0962A8",
"XX c #0766A5",
"oX c #1265A1",
"OX c #497A9A",
"+X c #567088",
"@X c #7A7E83",
"#X c #677885",
"$X c #417CA2",
"%X c #738795",
"&X c #4E83A5",
"*X c #7A98AA",
"=X c #8A8B8C",
"-X c #858485",
";X c #998C84",
":X c #8B8E92",
">X c #939394",
",X c #9B9B9C",
"<X c #959799",
"1X c #929293",
"2X c #A29B95",
"3X c #969DA3",
"4X c #90A4B3",
"5X c #A2A2A3",
"6X c #ACADAD",
"7X c #A3A7AA",
"8X c #A9AEB1",
"9X c #ADB3B7",
"0X c #B3B4B5",
"qX c #BBBBBC",
"wX c #B4B7BA",
"eX c #B2AFAC",
"rX c #B0A096",
"tX c #BFBFC0",
"yX c #B5C1C8",
"uX c #C2C3C4",
"iX c #C5C7C8",
"pX c #CBCCCC",
"aX c #C7C8C9",
"sX c #CBCFD1",
"dX c #CDD1D3",
"fX c #D3D4D4",
"gX c #DBDCDC",
"hX c #D7D8D9",
"jX c #DFE0DE",
"kX c #E0E0DF",
"lX c #DDDFE0",
"zX c #DFE0E1",
"xX c #E3E4E4",
"cX c #EBECEC",
"vX c #E7E8E9",
"bX c #F0F0EF",
"nX c #EDEFF0",
"mX c #EFF0F1",
"MX c #F2F4F4",
"NX c #F7F8F9",
"BX c #FAFBFB",
"VX c #F6F7F8",
"CX c #EEF0EF",
/* pixels */
"G.F.G.F.G.G.Z.G.Z.Z.Z.F.F.G.F.Z.F.F.F.Z.F.z.F.F.F.Z.Z.Z.z.z.z.z.z.z.k.z.k.z.z.z.z.z.z.z.z.z.z.z.z.z.z.! E N N N b b N M b b M ",
"K.{. XG.F.F.F.Z.Z.Z.Z.F.F.F.F.F.F.F.n.n.F.z.F.F.z.K.x.z.x.l.z.z.z.z.x.z.k.k.k.z.x.z.k.k.k.z.z.! m.! z.z.z.z.~ Q N b b b b b b ",
".X|.|.G.G.G.G.Z.P.Z.Z.F.F.F.G.F.F.F.F.F.F.F.F.F.F.n.F.Z.Z.n.z.A.A.A.Z.z.z.z.z.z.z.x.z.z.z.Z.z.z.z.z.z.! ! z.z.! z.~ E Z M M M ",
".X.X|.G.F.F.F.P.Z.Z.P.F.F.G.F.n.F.F.Z.F.F.F.F.Z.Z.z.F.n.F.A.^ ^ x.A.Z.z.z.z.z.z.n.x.x.k.z.z.z.z.z.k.z.z.z.z.! z.! z.~ k.D M M ",
"|.|.|.Q.F.F.F.Z.Z.P.Z.P.Z.G.F.F.F.F.F.F.Z.F.F.Z.z.z.P n.Z.R.z C x.Z.Z.z.z.z.Z.x.n.x.x.z.z.z.z.z.z.z.z.z.! z.! ! z.k.k.k.k.! N ",
"|..X|.|.|.F.F.P.P.Z.P.P.Z.G.G.F.F.F.F.F.Z.F.z.z.x.x.= z.n.V j ~ A.A.Z.z.x.z.l.x.x.x.x.z.z.z.z.z.z.! z.z.z.z.z.z.! k.z.z.k.k.l.",
".X|..X.X|.[.I.G.P.Z.P.P.G.G.G.F.F.F.F.F.F.F.F.x.x.l.r ^ x.e Y x.Z.l.s l.x.> ; z.z.x.x.x.x.x.x.z.z.z.z.! z.z.z.! z.k.k.k.k.k.k.",
"|..X|.XX.X.X|.{.[.[.{.[.[.G.G.Z.F.F.F.z.F.Z.z.K.F.l.i C x.r k l.z.e r x.e O k.z.z.z.z.Z.x.x.z.k.z.z.! z.z.z.z.z.z.z.z.k.z.k.k.",
"|.|..X|..X|..X}.XX|..X|.}.}.|.I.F.Z.Z.F.F.F.F.x.^ x.e T T r n > ^ O f f X r Z.z.z.Z.z.Z.z.x.x.z.z.z.z.! z.z.! z.z.c.z.k.k.k.k.",
".X.X|..X|..X|.}..X.X|..X.X|..X|.|.I.I.|.|.{.{.c.y m.* ( i r Y O B X W = O c.x.F.z.Z.F.Z.x.z.z.! z.z.z.z.z.z.z.x.x.x.z.k.k.k.z.",
".X|..X|.|..X|.}.}.|..X|..X|..X|..X.X|.|.|.|.|.T.j S : B.* * ' X u   T X : z.n.Z.Z.Z.n.Z.z.k.k.z.m.l.z.! z.z.z.x.x.x.x.z.k.k.k.",
".X.X.X|..X|..X}.}..X|.|.|.|.|.|.|.|.|.|.|.|.|. Xl T n < / O /.@ * X :   f n.z.n.F.z.Z.z.z.z.z.k.n.x.k.z.z.! z.x.x.x.z.k.k.k.z.",
"|..X|.|..X.X|.}.}.}.}.|.|.|..X.X|.|.|.|. X[.T.I.~ U e + W.; T.y .   .   ~ n.F.Z.Z.z.Z.F.z.n.l.z.x.x.n.z.x.x.x.z.x.x.x.z.k.k.z.",
".X.X.X.X|.|.}.}.}.}.|.|..X X}. X X X XoX{.{.l.i T.= ` * U j P N.. .   X n l.z.A.A.A.Z.Z.n.n.x.~ z.z.z.z.x.x.x.z.z.z.z.n.k.k.z.",
".X.X|.|..X}.}.}.}.}.}.|..XE J ( x.T.m.n.W Y L G 5 0 > ` ; ` i ).t   . % =.O.+.} C D D P n k c 6 z.z.z.z.x.x.x.z.z.z.Z.z.z.z.z.",
"|..X.X.X|.}.}.}.}.}.}.}.}.N.:.a.:.r.:.O.3.=.t.4 U > - G ` Y > /.N., , X Y E.e.s.2.;.-.:.i.t.d.+.z.z.z.z.x.x.x.x.z.Z.x.n.z.k.z.",
".X.X.X.X.X.X.X|..X|..X|.|. X-.@.- K X./ P l & Y r h p + N.e y h oX` < + 0 | ^.J Y m._. .X.j :.x z.z.x.x.x.x.z.z.z.n.z.A.A.z.z.",
".X.X.X.X[..X.X.X.X.X|.|.|. X@.} R.C.&.i.w L 5 v M., r / > ] + p ] W.- @ 0 u.2...K :.2.6.K T.8.s x.x.k.k.z.k.z.z.z.Z.F.x.K.z.z.",
"|..X.X[.I..X.X.X.X.X|.|.|.oXv u.E.J :.$.>.f.h.c h / * @ ( < 1 < & [ h - - Y 8.2X;X;XrX1.J  .+.B x.x.z.Z.F.z.x.z.z.Z.z.z.K.F.z.",
"|.|.[.G.F.[..X.X.X.X|.|..X.Xv s.@.G c  .tXzX5X>X- * m.Y , ` * , < h ~ . X [ _.4XzXcXuX9 &.0.%X=X=X7.| C x.z.x.z.z.z.Z.A.z.Z.Z.",
"[.[.I.Z.P.P.{..X.X X X( ].+X0.;X@.3 c C./.&XsX{ / O # ` ^.< / * < ' Y   X ^.XX~.&X4Xh.aXkXBXpX5XfXvXpXfX3.x.l.Z.z.z.z.z.z.n.Z.",
"[.[.P.P.P.P.P..X.X X| 9XbXBXcXgXfXpXqX9XwX4X4X9.o.x   + / ] & % , /.h   > ).^.N._ | :XkXcXw.2 8.o 3 f.fX4.x.x.F.F.F.F.z.z.z.z.",
".XP.P.P.P.P.Z.G.{.I.tXfXbXw.xXgXiXdXcXcXMXpXpXjXgXsXpXaX6X,X%Xw.9.9.0.q.@X=X7XaXzXaXeXcX+.  ,XeX%   7 8.4 P Z.z.n.F.n.z.z.z.z.",
"[.P.P.P.P.P.Z.K.{.{.J gXfX. q.NXcXjXgXlXBX5X% bXBXgXpXyX0XxXfXuXuXyXpXgXkXkXgXhXsXuX5XqXo 2 vXpX2   =.zX5X9.l.Z.z.z.z.z.z.z.F.",
"P.Z.P.G.P.P.P.P.G.{.C w.6XO.NXNXcXNXNXgXbX6X$ NXqXpXxXhXhXjXfXpXgXxXvXVXMXkXhXpXpXhX1Xw.  #.BXqX@.  q.uX6 5X, I.n.K.F.z.z.z.z.",
"P.P.P.Z.P.P.P.{.A.+X7X<.@X5XeX6X@.+.w.@.@.,X2 aX7 3 xX7 *.-.hXq.q.aX*.gX+.0XuX=.qXvX=X1Xo 3 BXgX3   ,X=X-X7XO |.Q.[.[.I.F.n.n.",
"G.P.P.P.P.P.P.P.E.bXNX1X6X5X6 8 + 5Xo -XdX1X6 BXxX3 qX% 6XX h.H ,X=.=.MX$ q.$ %X6.MX,XfX1X2 uXNX3 o 0X>Xq.<.z I.|.Q.|.|.|.|.I.",
"P.G.P.P.P.Z.P.A.#XpXVXqXpX6 % 8.% xXo 5XO.q.2 BXVX2 0X$ xXO yX>X-X7 =XkXo =X% h.hXkX=XBXfX,Xo 4.% . qXhXa C I.|.|.|.I.Q.|.Q.|.",
"G.P.P.P.P.P.Z.Z.C @XxXgXuXw.8.pX8.xX2 6X% 8.6 =XtXo 0X2 xX% fXmXw.7 uX=XX uX2 vX3 pX=XBXpXo 2 6X3 % fXcXk I.|.|.I.Q.|.Q.Q.Q.|.",
"P.G.P.P.Z.Z.Z.P.H.l uXMX>XcXxXNXpXqX@.<.8.>X9.gX+.#.qX7 tX3 5X@.@.5XNX6 >.uX% kX+ eXeXBX*.  =XuX=.3 bXcX/  XQ.Q.|.|.Q.Q.|.Q.|.",
"P.P.P.P.G.Z.P.Z.P.x.<XNX,XgXpXqXuXdXvXMXNXNXBXMXxXcXNXNXVXNXxXxX6XNXhXhXBXxX<X0X,XaX,XkX$ . xXdX6 @.BXpXT |.Q.|.Q.|.|.Q.Q.Q.[.",
"G.P.P.P.P.P.Z.P.Z.Z.| MXeX5XO.=., / -.tX5X*.8 +.6.=.0.-X:X5XyXsXcXBXgXuXhXVXBXxXaX9.5X,X. 8 =XxX8 w.BX5XE Q.Q.I.|.I.Q.I.|.Q.|.",
"G.G.G.F.I.G.G.G.F.Z.v cXw.pX9.| ] | ;XkXhXH p / G > W.W.U t ' G { 5.%.OX+XpXtX8X9X,XzX,X1XsXbXVX+.@.BX>XQ |.Q.|.I.Q.Q.Q.Q.Q.|.",
"G.G.G.G.G.F.G.G.F.Z.x fXeX0X@.&.^.2.;XfXaXL U Y h a / V.r  .m.k I G i XX/.&XnXvXvXwXfX,X5X3X2X9X=.%.BXuXQ Q.|.Q.Q.|.Q.Q.|.I.|.",
"G.F.F.G.G.G.G.G.G.P.> q.9XMX6Xa.E.o.#.3XhXK I < , o X O = l ] = N.> Y ^.W.).'.tXvXgX5X1. .5.y.n , * { v ( |.Q.Q.Q.Q.|.|.Q.Q.I.",
"F.G.G.G.G.G.G.F.G.G.l 6X=.].H u.J  .J '.%X*X> . X . G / j * ] > ] h h I P / N. .4XmXxXh.R J 2.T k r |.I.{.Q.Q.|.Q.Q.Q.Q.Q.I.I.",
"G.G.G.G.G.G.F.F.F.A.~ 5.,X .n K I J K )./.` h @       O X X Y > ] ^.( y G I R Y N.4XhXh.#.[ 3.P I s I.(.Q.Q.|.Q.Q.Q.I.Q.Q.I.I.",
"G.G.G.G.G.F.F.Z.Z.Z.P.x.wX+XM @./.H %.~.oX).N.=           X 1 O h m.# ,   @ ` V.I ^.OX:.>./.*.T P f |.Q.|.|.Q.I.|.[.|.|.I.Q.I.",
"G.G.P.A.P.G.G.P.Z.Z.A.l.@X~ S y.] _ -.^.~.oX/.j             * , r ]     X > ] L.W.I ).-.J  .i.T n k I.Y.I.|.Q.Q.Q.Q.Q.I.I.I.I.",
"G.F.K.F.G.G.F.Z.F.Z.Z.x.g x.B a.H N.#.).oXoX~.V.&           X a p @   %  .).Q.] B.M.(.;.x p y.V k b k.k.L.Q.Q.Q.I.Q.I.I.Q.I.Q.",
"G.G.F.Z.Z.F.G.F.F.F.F.A.x.x.P 1.G { 8 C.~.).~.^.G i G @       @ O X 9 0X4X'.~.V.N.).^.t.K < *.h ~ D l.k.K.I.I.I.I.Y.Y.Q.Q.I.I.",
"G.G.F.n.Z.Z.F.F.Z.Z.z.x.z.z.~ 2.` } t.9X .).W.I N.h O             $ xXMXNXaX&XoXoX~.[ y.6.` -.n k.! l.k.m.L.I.L.L.m.m.z.Q.Q.Q.",
"Z.G.F.F.F.F.Z.F.z.F.Z.Z.z.x.~ q 3.C.e.2XaX{ ' / , .       % :   o iXVXcXMXlXMX4X_.XXX.u.`...:.P l.k.k.l.k.k.! ^ k.k.^ ! k.n.m.",
"c.F.F.F.Z.Z.Z.F.F.z.K.z.A.x.~ q a.j 5 #. . .k / , .       X / @ t hXVXcXcXvXcXNXyX].=.3.[ i.0 ~ l.! l.k.! ! W ! ! ! ~ ! ! k.! ",
"j.c.F.F.n.F.n.F.Z.z.Z.F.z.^ W v K I ` V./ k < , o = * +   X N.r C.8XcXvXxXcXmXbXbXqX:.&.I <.c l.l.! k.! ! k.^ ! ! k.k.! ! ! ! ",
"D c.z.F.Z.Z.z.F.z.F.n.F.z.n p N.Y a < G Y G J 7.5X&X^.I . - Q t / ' *XlXhXmXMXbXbXtXy.@.N.&.h l.l.^ ^ ! k.k.! ! ! k.! E E ! z.",
"D c.c.F.z.z.z.z.z.D c.z.z.z.P = h J y , @ %.9XzXnXzX4X/., @ h I ; / (.$X9XvXVXMXMXh.6./. .+.~ l.! k.! k.k.k.! ! ! ! k.! ! ! ! ",
"D j.j.Z.z.D c.x.D D x.n.k.k.z.~ 1 8 p k $.1XkXzXnXvXzXyX].& = C., i h E.Y v :XnXeX1.[ | i.a ~ l.l.l.k.! k.! k.k.k.! ! ! ! ! ! ",
"D j.D D k.D D D D D ^ ~ D Z D D W :.7 / =.t.wXgXxXmXmXcXfX7.1 - / ( l t < p ..wXg.1.h R :.T l.k.k.k.k.k.! k.! k.k.! ! ! ! ! z.",
"D D D D D D D M D N D D M M D N M p 4.( E.4.2.fXxXmXVXmXzXlX0.j C.Y h i < R (.+.i.o.W.5.c ~ ~ k.z.k.k.k.! k.k.k.k.z.! z.! z.! ",
"D D D D Z D D N N N N Z M M D N b V $.:._ T.=.e.gXVXNXMXcXMXcX7./ '.).m.] W.| u.C./.8.,.N z.! z.! z.z.k.! m.k.! z.! ! ! z.z.! ",
"D D D D D Z D D D Z D D M M M M D C z t.a.J Y 1.;XcXNXMXmXmXcX0.5.OX).Q._. .t.| _ &.a.p ~ z.z.! z.z.z.z.k.z.Y.! z.! ! z.! z.z.",
"D D D D D D N N D Z M M D N N N D M D v t./ Y 3.u.f.cXxXMXcXcXvXeXhX*X/.] t.2.j ] 4.6 k.k.k.z.z.z.! z.n.z.z.k.z.z.k.k.k.k.! z.",
"D Z Z D N D D D D D Z D M D M N M D Z Z a 4. .(.E.*.f.hXcXMXmXcXcXjXhXw.u.| /.`.6.c ^ k.n.k.k.z.! z.! z.k.k.k.z.! k.Y.k.k.z.z.",
"Z Z Z D D D D D D D D D M D N D M N M V V c d.;./ { t.g.aXcXcXvXvXpXg.u.K N.K s.6 n l.n.k.z.k.~ z.k.k.k.k.k.k.! k.k.! k.! z.! ",
"D D D D D D N N D D D M D M N M M N M M M M 5 u.`.T.R.5.;.f.fXsXf.1.4.`.^.W.6.9 f M D ! n.k.E b N ^ ~ ! l.k.k.Y.k.k.k.k.! ! z.",
"D D D D D D D D D N D Z M M Z M M M D M M D N 5 -.5.X.'  .1.a.t.a.} ' ..8.>.5 V N b b N D N M b N N b M N D l.z.k.z.k.c.! k.k.",
"M D N N D D D M M D D D Z D D Z D N N N D M N N r q i.R n p &.=.} I _ :.q z V N b N b b b b b b b b b b M b N M M M b b b M E ",
"N N D D D M D D D D N M M M D D M D D M M D N D N d 5 $...' _  .I  .x x b M M b N N b N b b b b b b b b M b V M b b M b b b I ",
"M D M D M M D D N N N M D D Z Z D Z N D D M D N N N M s 6 :.i.t.-.5 s M M M M b b b N M b b b b d b N b M M M b d b M b b M N ",
"D D D D M N N D D D M Z Z Z Z Z Z M Z D M D M M D M M M N s a y d b M M M M M b M b M M b b d b d b b N M M M b b b b N b b b ",
"M N M M M M N N M M Z M N Z D Z D b M M N Z D N M M M N D D D N N D N N N M b M b M b b b b b d d b b b b M b b b d b b d b d ",
"Z D M M M b N N N D M D Z D M D M M M M Z M D N M D M M D N b N M M N M D M M M b b M b b b b b b b b b b b b b b d d d d d s ",
"D Z M D D D N N N D N M Z Z D M M M Z M M M M N M N M N M N M N b N M N M Z M M M M M b M M b b b b b b b b d d s s d d s s s "
};
