/* XPM */
static char *small_slytherin[] = {
/* columns rows colors chars-per-pixel */
"64 64 244 2 ",
"   c #0A0D0B",
".  c #040F07",
"X  c #08180C",
"o  c #0E1310",
"O  c #081D11",
"+  c #121414",
"@  c #1A1C1C",
"#  c #151717",
"$  c #0E0A11",
"%  c #0B2313",
"&  c #062D15",
"*  c #0B2C15",
"=  c #0C2C19",
"-  c #062414",
";  c #132919",
":  c #0D331B",
">  c #0B3C1C",
",  c #073519",
"<  c #13391C",
"1  c #07270F",
"2  c #1D1F20",
"3  c #093C22",
"4  c #1C3D28",
"5  c #183B23",
"6  c #1D2020",
"7  c #28292A",
"8  c #323534",
"9  c #3A3D3B",
"0  c #283D31",
"q  c #04441D",
"w  c #0C431F",
"e  c #074B1D",
"r  c #11441D",
"t  c #00501F",
"y  c #054323",
"u  c #0B4423",
"i  c #054B23",
"p  c #0B4C24",
"a  c #0C4E29",
"s  c #094A2A",
"d  c #134423",
"f  c #144C25",
"g  c #144B2A",
"h  c #1B4B2A",
"j  c #1A4728",
"k  c #035424",
"l  c #0B5425",
"z  c #025B25",
"x  c #0E5A25",
"c  c #04542A",
"v  c #0B552B",
"b  c #055C2B",
"n  c #0C5B2B",
"m  c #145425",
"M  c #13532B",
"N  c #1B552C",
"B  c #135B2B",
"V  c #195A2D",
"C  c #135927",
"Z  c #0A5C31",
"A  c #125D32",
"S  c #1B5C32",
"D  c #1B5530",
"F  c #1F4D33",
"G  c #21482B",
"H  c #294934",
"J  c #275936",
"K  c #39433E",
"L  c #016D27",
"P  c #04632C",
"I  c #0C632C",
"U  c #006D2C",
"Y  c #0B6B2D",
"T  c #086125",
"R  c #13632D",
"E  c #1A632D",
"W  c #136B2C",
"Q  c #16672B",
"!  c #00742E",
"~  c #00792E",
"^  c #0B782F",
"/  c #0A722C",
"(  c #13722E",
")  c #19752F",
"_  c #056533",
"`  c #0A6333",
"'  c #046B32",
"]  c #0B6B33",
"[  c #076A39",
"{  c #136431",
"}  c #1B6432",
"|  c #136B33",
" . c #1A6A33",
".. c #1C693A",
"X. c #007630",
"o. c #007531",
"O. c #0B7232",
"+. c #007A31",
"@. c #007C31",
"#. c #007F32",
"$. c #007E32",
"%. c #007B32",
"&. c #0D7C34",
"*. c #03753A",
"=. c #0C743B",
"-. c #027C3B",
";. c #0C7A3A",
":. c #147333",
">. c #1B7336",
",. c #147C35",
"<. c #15753A",
"1. c #1C753A",
"2. c #137C3B",
"3. c #1A7C3B",
"4. c #187C37",
"5. c #216336",
"6. c #27653D",
"7. c #22763A",
"8. c #3E3F41",
"9. c #3B4941",
"0. c #395844",
"q. c #2A5B43",
"w. c #067D41",
"e. c #1B7846",
"r. c #366747",
"t. c #2C7247",
"y. c #397556",
"u. c #33694D",
"i. c #4B4D4D",
"p. c #444747",
"a. c #475A4D",
"s. c #4A5D50",
"d. c #525554",
"f. c #575B59",
"g. c #59685E",
"h. c #476E54",
"j. c #567762",
"k. c #586D61",
"l. c #636564",
"z. c #686A6A",
"x. c #627569",
"c. c #757978",
"v. c #6D6F70",
"b. c #01812F",
"n. c #028B2E",
"m. c #008032",
"M. c #008030",
"N. c #008334",
"B. c #0C8434",
"V. c #008A35",
"C. c #008D36",
"Z. c #008D36",
"A. c #00823A",
"S. c #0B843A",
"D. c #008D38",
"F. c #0C8A3A",
"G. c #0B8D35",
"H. c #128336",
"J. c #14833B",
"K. c #1A853C",
"L. c #148A3C",
"P. c #188C39",
"I. c #009036",
"U. c #019139",
"Y. c #0C953C",
"T. c #059B3B",
"R. c #0C9C3E",
"E. c #079736",
"W. c #12933D",
"Q. c #139C3B",
"!. c #25813D",
"~. c #03A43C",
"^. c #01A93D",
"/. c #0AA33C",
"(. c #16A13C",
"). c #168C42",
"_. c #0D9B42",
"`. c #079643",
"'. c #199345",
"]. c #169A45",
"[. c #008240",
"{. c #268947",
"}. c #309250",
"|. c #03A541",
" X c #0CA442",
".X c #07A645",
"XX c #15A246",
"oX c #2FA153",
"OX c #51835E",
"+X c #5E9B72",
"@X c #4C8E65",
"#X c #678874",
"$X c #75877B",
"%X c #689677",
"&X c #6A8B74",
"*X c #4EA670",
"=X c #69A57B",
"-X c #7D8582",
";X c #7E8B85",
":X c #769985",
">X c #78A98A",
",X c #7CB38D",
"<X c #858C8A",
"1X c #8A8C8C",
"2X c #828685",
"3X c #82988A",
"4X c #8D9292",
"5X c #8D9C93",
"6X c #929495",
"7X c #9B9C9C",
"8X c #969998",
"9X c #898C90",
"0X c #85A48E",
"qX c #89A895",
"wX c #9AA39E",
"eX c #93B69B",
"rX c #9D9FA1",
"tX c #9DA5A2",
"yX c #9CB4A5",
"uX c #A3A4A5",
"iX c #ABACAD",
"pX c #A3ACA9",
"aX c #A7B2AB",
"sX c #ADAEB1",
"dX c #ACB1B1",
"fX c #ACB9B1",
"gX c #B2B4B4",
"hX c #B6B8B9",
"jX c #BABBBC",
"kX c #B6B7B8",
"lX c #B3AFB8",
"zX c #ABC4B4",
"xX c #B7C6BC",
"cX c #BDBFC1",
"vX c #BDC2C1",
"bX c #C3C3C5",
"nX c #C6CACB",
"mX c #CBCCCD",
"MX c #C7C5CA",
"NX c #CDD1CF",
"BX c #C7D0CC",
"VX c #CDCED1",
"CX c #CED2D3",
"ZX c #D1D2D4",
/* pixels */
"! ! b.L L L ! ~ ~ ! ~ ~ ~ ~ ! o.%.%.%.-.M.M.%.%.%.%.-.V.M.M.M.M.M.M.%.~ ~ ! ! ! ! ! L U ! ! ~ ~ ~ ~ ~ ~ ! ~ ! U z t t t t t t z ",
"M.Z.b.! ! ! ~ ~ ~ ~ ~ ~ ~ ~ ~ ~ %.%.M.M.M.M.%.%.%.M.%.%.%.M.%.%.~ %.%.%.~ ~ ! ! L L U U U ! ! ~ ~ ~ ! ! ! ~ ! ! ! U z t z t z z ",
"Z.M.Z.~ ! ! ~ ~ ! ~ ~ ~ ~ %.~ ~ %.V.M.M.M.%.V.M.M.%.-.M.M.%.M.-.%.M.%.%.~ ~ ! ! ! ! ! ! ! ! ! ! ! ~ ~ ! ! ~ ~ ! ! ! L L T T z z ",
"n.Z.M.~ ! ! ~ ! ~ ~ ! ~ ~ %.%.M.%.%.%.M.M.M.M.M.M.M.M.M.%.M.%.e P o.%.%.~ M.o.! ! ! ! ! ! ! ! ! ~ ~ ! ~ ~ ! ~ ! ! L L L ! ! P T ",
"b.Z.b.Z.~ ~ ~ ~ ! ~ ~ ~ ~ %.%.%.%.M.%.M.%.%.%.M.%.-.%.o.[ T z % a i l n k ] P U ! U U ! ! ! ~ ! ! ~ ~ ~ ! ~ ! ! ! ! ! ! ! ! o.! ",
"Z.Z.Z.Z.D.Z.~ ~ ~ ~ %.%.%.%.~ ~ %.M.%.%.M.~ ~ %.P P ` U w.-.[ & A ` -.-.*.o.o.i P L L ! ! ! ~ ~ ~ ~ ! ~ ~ ~ ~ ~ ! ! ! ! ! ! ! ! ",
"b.Z.M.Z.D.Z.E.M.M.%.M.~ ! %.M.M.M.%.M.%.%.%.%.&.v Y [ i & O % & b = O O & s U p U ! ! ! ! ! ~ ~ %.! o.o.~ ~ ~ %.! ! ! ! ~ ~ ~ ~ ",
"Z.Z.Z.Z.Z.Z.Z.Z.Z.Z.Z.Z.Z.Z.b.%.%.%.%.%.%.%.M.~ ] & 1 , c n 3 % p ..v d 3 3 * l P P T ! ! ! ! ~ &.O.T P ~ ~ ~ ~ ~ ! ! ~ ~ ! ! ~ ",
"Z.D.D.D.Z.D.Z.Z.Z.Z.Z.D.P u z _ I z z z i f t i P _ ] A R 2.n 3 w l ;.3. .I B [ P c q a c k k i k i a p ~ ~ ~ ! ! ! ! ~ ! ~ ~ ~ ",
"M.D.M.Z.D.Z.Z.D.Z.D.Z.D.o.A c I R R ] [ [ o.[ c p S.~.>.h 1 & = 3 , : > H.~.~.B.M , y s P =.H.T.).f b o.o.! %.o.! %.! ~ %.~ ! ~ ",
"Z.Z.Z.Z.D.Z.Z.Z.D.D.U.D.F.k I F.Y.U.P. .: X : C _.E.`. .s [ _ O % m _ a w S.^.T.Y.A 1 B E T.^.^.E.R c %.o.! ! ! ! %.~ ~ ~ ! ~ ~ ",
"M.Z.Z.Z.M.Z.Z.D.D.D.Z.D.D.x n _.~./.W.W.P.} 1.b.<.J r.j.#X;X<X6X8X8X3X<Xk.a.h.t.h P f `.Q.T 1.B.L.P c ! ! ! ! ! ! ~ ~ ~ %.~ ~ ~ ",
"M.Z.Z.M.Z.Z.D.Z.D.Z.Z.D.E.=.k F.z X + % 0.#X<XuXgXiXiXuXiXmXtXdXmXmXhXkXgXMXCXbXsX1X9 L.^..XL.} e s n o.~ ! ! ! ! ~ ~ ~ ~ ~ %.~ ",
"Z.Z.Z.D.Z.D.D.D.D.D.D.Z.Z.V.n B J i.4XbXmXuX7X4X4XrXiXpXZXZX-X$ 7X7XcXZXVXiXiXmX8XcXf.Y./ : . . r P./ e ! o.o.~ ! ~ ~ ~ ~ %.~ ~ ",
"Z.Z.Z.D.Z.D.D.D.D.D.Z.E.Z.e.H ;XxXZXCXZXZXVXMXZXZXZXZXZXZXZX1X@ kX8.9 mXZXZXZXZX8 i.$X].Y.E > ].K.B W.l ! ~ ! ~ ! ~ ~ ~ ~ ~ ~ %.",
"Z.D.D.D.Z.D.Z.D.D.Z.D.:.F c.bXZXZX4Xf.ZXgX8XjXZXcXz.4XZXhXc.c.@ NXc.+ iXZXZXZXZX7 d.f.G.|.Y.Y.&. .% Y.H D O.~ ! ~ ~ ~ ~ ! ~ ~ %.",
"Z.D.Z.Z.Z.E.Z.D.D.Z.h.pXiXiXvXmXZXMXsXcX$ # @ uXp.-X2 uXl.7 8 # NX4X@ 1Xf.uXp.6X7 l.l.^ ~.~.H.V o : _.c.iXk.I ~ ! %.%.~ ~ ~ %.~ ",
"Z.Z.D.Z.Z.D.D.Z.D.A c.iXgXbXjX-XhX9X7 8Xi.c.  gXz.9X8.v.f.d.7X# mX8X8 gX8 wX  iX; 2X2XW.~.,.:   1 F.Y.$XxXmXK O.~ ~ ~ ~ ~ M.%.~ ",
"Z.Z.D.%.%.D.D.Z.Z.D.h 8XbX7 8.  d.sX$ 4XZXrX  iXhXhX2 d.d.l.iX$ 8X4X@ bX9 f.8 mX$ v.x. XP.= $ 1 '.|.Q.c.bX0.T ! ~ ~ ~ ~ ~ %.%.~ ",
"Z.D.V.%.%.%.Z.D.D.Z.] z.vXo 1X8 i.VX2 z.ZXjX  7Xp.jX2 v.i.d.c.@ 8X7 6 VXf.  c.mX  c.g._.V X X G.^.^.U.c.pXA ! %.~ %.%.~ %.%.~ b.",
"Z.D.%.%.%.~ M.Z.Z.E.H.H mX8 l.v.# VX8.7 mX7X7 c.sXz.v.nXiXuXVXmXgXgX2XZXiXo kXuXl.z.3X].* X W.Q./ T N rXr.~ ~ %.%.%.~ M.b.~ %.%.",
"D.Z.%.~ ~ ~ ~ Z.D.Z.E.x rXd.8 uX  rXi.f.iXZXZXZXZXVXVXCXZXkX0X$X3X8XgXxXmX2X8 d.hXVX3XS.  < .X< B.P., ; O.b.~ ~ ~ ~ %.%.~ ~ M.~ ",
"M.~ ~ %.~ ~ %.~ Z.E.U.L 2X-Xo 8Xd.7XCXCXZXZXCXCXVXBXMXrXs.5.].} &.Y.G x.lXmX8Xp.l.VXg.S.  I T.X Q.^.2.o x Z.M.%.%.~ ~ ~ ~ b.%.M.",
"%.~ %.~ ! ~ %.~ Z.Z.Z.L.s.8X4XVXZXCXvXsXjXmXiX:XOX0 % o 5.,.W.T Q.f 3.d : 6.h.<XjXmX6.].X ( /.= ^ ^.B.f > Z.D.M.~ ~ ~ ~ ~ ~ %.%.",
"! ! ! ! ~ ~ %.M.M.D.U.`.r.dXnXCXvXiXhXdXx.t.*.=.o.m P.n H.R L.J : V ,.W 3.f *.*.A i.N ~.M C /.P.1.(.M.f , Z.Z.E.Z.b.M.M.%.~ %.M.",
"! ! ~ ~ ~ %.~ ~ M.M.M.Z.] vXbXMXcXv.4 A n v ( ,.2.O..X/.5.u h E x H j R g  .o.-.{ 0.h ~.P.e '.^.^.^.2.X R E.Z.D.Z.U.D.D.D.M.M.~ ",
"! ~ ~ %.%.%.M.M.M.M.%.b.n 4XhXf.; s b -.u N ).'.5.E .XB.A }.aXXXoXtXt.B e.7.m V.w.0 v |.~.L.Y R x p O u Z.Z.Z.E.Z.E.Z.Z.U.U.D.V.",
"~ ~ M.M.M.%.%.M.-.%.M.M.b s.4 = h M c V.b 3 i.uXaXH N B.4 gX<X:XkX4X#XY 3.5.B.w.V.o.b A T )./.~.H.:.B S.E.Z.Z.Z.D.D.D.Z.Z.E.Z.D.",
"%.%.V.M.%.%.M.M.V.%.V.M.! ! ! _ X S v M.o.-., d.hXi.2.p [ e.3XXXoX5XH | U.N g w.M.-.V.-.V.= p ` /.T.W S.Z.Z.Z.Z.D.D.Z.Z.Z.D.Z.Z.",
"%.M.M.M.M.M.M.V.M.%.%.M.%.M.[ [ * R c -.i w.s.8X+Xj ; P -.V._ |.Y._ A S ( >.D -.V.w.w.V.[ u 3.X w I >.%.Z.Z.Z.Z.D.D.D.Z.Z.E.Z.E.",
"%.V.%.V.-.V.M.-.-.%.%.M.M.M.! v Y >.y.>XA & % M B 0.9.[ V.-.V.[ *.k ; 3.%.1.s M._ w.-.e.tXt.Y.q M ;.q U Z.E.Z.Z.D.D.D.Z.Z.D.E.Z.",
"V.%.V.%.%.M.M.V.V.M.M.M.M.M.[ 5 Y.H.u.iX7.%.w.-.V.[ g V.w.V.w.*.B I ,.L.W >._ V.v b w.yXhX5 n.&.p Z.Z.S.Z.Z.Z.D.D.Z.Z.E.Z.D.D.Z.",
"V.M.M.M.M.M.M.M.-.M.V.M.M.M./ * Y.Z.u.}.~.J.*.V.M.-.*.V.b.-.b I [ ,.V x e.a V.-.v h W eXBXh _.Y.i Z.Z.Z.E.Z.Z.D.D.D.D.E.Z.Z.U.Z.",
"-.M.M.%.-.M.M.V.V.V.-.M.M.M.! j  X] :.T.~.*X:X[.V.[.V.*.s & | ).&.W h O.y -.M.w.l E ].XX5X_ O.&.l D.D.Z.U.Z.D.Z.D.Z.Z.Z.Z.Z.U.U.",
"M.M.M.M.V.M.M.V.V.-.V.V.V.M.o.p ,.3 T /.}.bX5X:X-.-.b , {. .L.5.).B j i -.-.<.g f f ~.}.iXI u :.` Z.Z.Z.Z.Z.E.D.D.D.Z.Z.Z.E.D.E.",
"M.M.M.V.M.V.M.-.%.M.M.V.V.%.o.b | M &.~.oXzXkX:XP 3 f L.R P.W G u M o.-.-. .A N A B V %XgXg & n ] E.Z.E.Z.Z.Z.Z.D.Z.Z.Z.U.U.U.U.",
"M.M.%.%.V.%.-.M.V.V.M.M.-.V.%._ X ;.S _.^.oX%X`.d H./ W.F.} m ; [ -.V.-. .m 5.7.& :.,.).@X5 5 a [ Z.Z.Z.Z.Z.D.D.D.Z.D.E.U.U.U.U.",
"M.M.%.V.M.V.V.M.%.M.V.V.V.-.%._ X O.&X,X|.*XyX:.B :.:.7.} d s x.b -.w.-.| M I > -.v  .J.=Xj > 3 o.Z.E.Z.D.U.E.D.D.Z.D.U.U.U.D.E.",
"%.V.%.V.M.V.V.V.V.-.V.V.V.M.%.*.< R 0.CX%XxX-XP.x < &.h v *.w.<.w.-.V.o.V g  .% *. .O.s.rXV f , %.Z.M.Z.Z.U.Z.Z.Z.E.Z.U.E.U.U.U.",
"M.V.V.-.M.M.V.-.V.M.-.V.V.V.*.b W ] :X>X X%X}.x R J.h p -.V.V.-.V.V.-.o.S J B < f  . .OXkXC >.l ~ ~ %.~ %.Z.E.Z.Z.Z.D.U.D.U.D.U.",
"M.%.V.%.V.M.V.M.V.-.-.V.V.-.%._ _.;.j.}.^.,.M {.V d O -.V.-.V.V.-.V.-.k J V :.h 2. .>._.@XM D. .[ %.M.M.%.Z.Z.E.Z.U.U.U.U.U.D.E.",
"V.V.%.V.V.-.M.V.V.V.V.V.V.M.o. .T.V.$XzXoX^ '.x 5.% d._ -.-.-.w.V.w.[ , % m ] G Y I 2. X0Xp .X/ ` %.V.%.%.M.Z.D.Z.D.M.D.D.D.D.U.",
"-.%.V.V.V.V.M.-.M.V.V.V.V.V.P g Q.] k.CX+XN f } < ; q.*.-.V.-.V.-.-.V.q j S A < w.V.-.+X8XP ,.&.A %.%.%.M.M.M.M.%.M.M.M.Z.M.Z.U.",
"%.M.M.%.%.V.V.M.V.-.-.V.-.M.b A 1.u ;X:X*.] P.,.j 3 %.V.V.w.o.e.o.[.M.-.g J I p -.V.-.;.x._ e M.` V.V.%.%.V.%.%.%.%.M.M.M.M.M.M.",
"! %.M.V.V.V.M.V.V.%.V.M.D.M.` c O y M -.M.:.,.J.p = -.-.V._ &.|.T.[ -.M.n :.,.m V.*.V.V._ P = v z M.V.%.%.M.%.%.%.M.%.V.-.M.V.%.",
"o.! -.M.M.-.M.V.V.M.V.-.V.M.v _   > b [.-.p R H.B < [ V.t.yX=X|.*XfX).*.A ;.} v *.0 *.-.*.b X A P M.V.M.V.M.%.%.%.M.V.%.%.M.M.M.",
"o.! %.M.V.M.%.V.M.%.V.M.V.V.n b < y Z V.o.s.X f W ).p Z 0XtXdXOXBX<XhXA :.:.J _ b p.c V.o.c p ] [ M.V.V.M.%.%.%.%.M.M.M.V.M.-.V.",
"U ! ! M.V.o.-.%.%.%.%.V.-.M.b _ n | _ -.-.[ v I :.M ).m {.yX>XXX+XvX$X}  .m h %.[.b [.V.[ b B.:.A %.-.%.M.M.%.M.%.%.M.D.M.V.M.M.",
"! U o.o.V.%.o.o.o.o.o.V.%.~ b [ K.n b -.V.-.-.s ,.Y.O.;.W D M / / J {.W v J s V.V.o.-.-.o.z '.H.: -.%.V.M.M.M.M.%.%.%.-.V.M.-.V.",
"o.U o.o.o.! o.o.o.o.o.o.! %.b ] G./ =.I o.w.V.V.M H. .'.r P.6.B.,.O.T.} ).H w.w.-.[.-.o.u g ) D s %.M.%.%.M.%.M.%.M.V.V.V.M.V.M.",
"! ! ! ! ! ! o.o.o.o.o.%.%.o.b s :.} Y.Y.n P [ *.,.%X7.Y m / ] B.) ( W.1.j.eX;.V.V.o.] x I U g * ` U %.M.%.%.%.M.%.M.M.-.V.V.V.V.",
"o.U ! o.o.%.o.%.o.%.o.o.%.o.u [ ` M P O.).v [ z Y.].$XC W E W.T e.m V W #XQ.^.n b A b.'.A S u A u P %.M.%.%.V.M.-.M.V.V.-.%.M.%.",
"! U U ! o.o.o.o.o.%.%.! %.%.o.k p i b n u S X y U <.%X/.P.3Xh.K.%X%XT.}.eX1.] *.* I _.l P b k [ %.-.V.M.%.M.M.V.V.%.M.M.%.-.V.M.",
"o.! ! ! o.o.! %.o.%.%.%.%.%.%.%.o.%.[ k _ b p I Y =.t.h.0X4XxX@XcXtX#X0Xq.] | G g R n f p O.-.V.M.M.M.V.%.%.M.%.%.V.M.M.V.V.V.%.",
"U ! ! ! o.o.o.! %.! %.~ %.o.%.! ~ o.%.o.P n _ l U.G.J.` @XdX>XXXzXtXH _ ,.Y.U.h g a k %.M.V.%.V.V.%.M.V.V.%.V.M.V.V.M.M.M.V.M.%.",
"o.! ! o.! o.o.o.o.%.o.%.! o.o.o.o.%.%.%.%.o.b v %.&.:.:.l ] O.XX{ e.n | H.L.( w n o.%.%.V.%.V.o.o.o.%.-.M.V.%.M.V.M.M.M.M.%.%.V.",
"! ! o.! ! o.! %.o.o.%.o.o.o.o.! o.o.%.%.%.%.%.[ q ` y X % : _ _ b u j & ` b P ] o.%.~ ! %.%.%.! o.! o.! o.~ %.V.M.M.M.%.M.M.M.V.",
"o.! o.! ! o.o.%.o.o.%.o.! ! o.o.%.%.%.o.o.%.%.o.%.b i *.i !.| &  .J.] _ z o.%.%.! o.! o.! o.! ! U U U ! U U [ ! ! %.%.%.! ~ ~ %.",
"o.! ! ! ! o.o.o.%.o.o.o.o.%.o.%.o.%.%.-.o.%.%.%.%.%.o.n P I B.} ] a x U %.%.%.! %.%.o.! ! o.o.U U U U U P U U ! U U ! o.! U U o.",
"! ! U ! o.o.o.o.o.! o.o.%.o.o.! o.o.o.o.%.o.-.%.%.%.%.%.~ b v D l P o.~ %.%.%.%.%.o.! o.o.! U U U [ ! U U U U U U o.o.[ ! U o.o.",
"o.! U ! o.! o.o.o.%.o.o.o.%.o.%.! o.o.%.%.o.%.%.%.%.%.%.%.%._ k P %.! ~ %.M.%.%.%.o.o.o.! ! ! ! U U o.U U U U ! ! ! U [ o.U U U ",
"! ! U ! ! o.o.o.o.o.! %.o.%.%.o.o.o.%.%.%.-.%.%.%.%.%.%.%.%.%.o.o.~ %.o.%.M.%.%.%.o.o.o.! ! ! ! o.U ! U U U U U ! U U ! o.U U U ",
"! ! ! ! ! o.o.! o.o.o.o.%.%.%.! %.~ %.%.%.%.%.%.%.o.%.%.%.%.%.%.o.! %.%.%.-.%.%.%.%.o.! ! ! ! U U U U U U U U ! ! U ! ! U U L U ",
"! U o.o.! o.! o.! o.o.o.o.~ %.%.! %.o.%.%.%.%.o.%.o.%.%.%.%.%.-.%.%.%.%.%.M.-.%.%.%.o.! U U U o.U U U o.[ ! [ U U U U U [ ! U U "
};
